<svg width="60" height="60" viewBox="0 0 60 60" fill="none" xmlns="http://www.w3.org/2000/svg">
<path d="M50.625 23.4375H31.1531L49.4671 18.6023C49.826 18.5077 50.1625 18.343 50.4574 18.1177C50.7523 17.8924 50.9997 17.6109 51.1853 17.2896C51.371 16.9682 51.4912 16.6133 51.539 16.2453C51.5868 15.8773 51.5613 15.5034 51.464 15.1453L49.5515 8.11405C49.2229 6.9296 48.4409 5.9223 47.3749 5.31034C46.3089 4.69837 45.0447 4.53101 43.8562 4.84451L8.15386 14.2664C7.55904 14.4214 7.00107 14.6933 6.51254 15.0664C6.02401 15.4394 5.61471 15.906 5.30855 16.439C5.00181 16.965 4.80335 17.5469 4.72487 18.1507C4.64638 18.7544 4.68944 19.3678 4.85152 19.9547L6.56245 26.25V46.875C6.56245 48.1182 7.05631 49.3105 7.93539 50.1895C8.81447 51.0686 10.0068 51.5625 11.25 51.5625H48.75C49.9932 51.5625 51.1854 51.0686 52.0645 50.1895C52.9436 49.3105 53.4375 48.1182 53.4375 46.875V26.25C53.4375 25.5041 53.1411 24.7887 52.6137 24.2612C52.0862 23.7338 51.3709 23.4375 50.625 23.4375ZM29.271 14.5101L33.5578 16.9851L27.4757 18.5906L23.189 16.1156L29.271 14.5101ZM44.3765 10.5258L45.2929 13.889L41.2781 14.9484L36.9914 12.4711L44.3765 10.5258ZM15.4687 18.1547L19.7554 20.625L11.4585 22.8164L10.5468 19.4531L15.4687 18.1547ZM47.8125 45.9375H12.1875V29.0625H47.8125V45.9375Z" fill="#5b99bd"/>
</svg>
