<svg width="60" height="60" viewBox="0 0 60 60" fill="none" xmlns="http://www.w3.org/2000/svg">
<path d="M58.5468 20.0366L31.3594 5.03661C30.9431 4.80681 30.4754 4.68628 30 4.68628C29.5245 4.68628 29.0568 4.80681 28.6406 5.03661L1.4531 20.0366C1.0135 20.2798 0.647081 20.6364 0.391926 21.0691C0.13677 21.5019 0.00219727 21.9952 0.00219727 22.4975C0.00219727 22.9999 0.13677 23.4932 0.391926 23.926C0.647081 24.3587 1.0135 24.7153 1.4531 24.9585L6.56248 27.771V38.9647C6.56063 40.117 6.98562 41.2292 7.75544 42.0866C10.9289 45.6327 18.0469 51.5624 30 51.5624C33.1744 51.5795 36.3339 51.1253 39.375 50.2147V56.2499C39.375 56.9958 39.6713 57.7112 40.1987 58.2386C40.7262 58.7661 41.4416 59.0624 42.1875 59.0624C42.9334 59.0624 43.6488 58.7661 44.1762 58.2386C44.7037 57.7112 45 56.9958 45 56.2499V47.8405C47.7163 46.3401 50.1645 44.3988 52.2445 42.096C53.0143 41.2386 53.4393 40.1264 53.4375 38.9741V27.7804L58.5468 24.9679C58.9864 24.7246 59.3529 24.3681 59.608 23.9353C59.8632 23.5025 59.9978 23.0093 59.9978 22.5069C59.9978 22.0045 59.8632 21.5113 59.608 21.0785C59.3529 20.6457 58.9864 20.2892 58.5468 20.046V20.0366ZM30 10.7132L51.3656 22.4999L43.5937 26.789C43.5791 26.7804 43.565 26.771 43.5515 26.7608L31.364 20.0366C30.7133 19.7003 29.9571 19.6311 29.2562 19.8438C28.5553 20.0564 27.965 20.5341 27.6108 21.1752C27.2567 21.8164 27.1666 22.5704 27.3598 23.2769C27.553 23.9835 28.0142 24.5867 28.6453 24.9585L37.7859 29.9952L30 34.289L8.63435 22.4999L30 10.7132ZM30 45.9374C20.5265 45.9374 14.8476 41.4679 12.1875 38.6085V30.8741L28.6406 39.9538C29.0568 40.1836 29.5245 40.3041 30 40.3041C30.4754 40.3041 30.9431 40.1836 31.3594 39.9538L39.375 35.5405V44.2663C36.3802 45.3982 33.2014 45.9648 30 45.9374ZM47.8125 38.6085C46.95 39.5328 46.009 40.3805 45 41.1421V32.435L47.8125 30.8835V38.6085Z" fill="#5b99bd"/>
</svg>
